<mxfile host="app.diagrams.net" modified="2021-11-24T02:35:42.777Z" agent="5.0 (Windows NT 10.0; Win64; x64) AppleWebKit/537.36 (KHTML, like Gecko) Chrome/96.0.4664.45 Safari/537.36" etag="w-Z7Ma06TT3jo_FyNSCG" version="15.7.0" type="github">
  <diagram id="Zh0Wd9Opv2IgrHGInty-" name="Page-1">
    <mxGraphModel dx="1278" dy="617" grid="1" gridSize="10" guides="1" tooltips="1" connect="1" arrows="1" fold="1" page="1" pageScale="1" pageWidth="850" pageHeight="1100" math="0" shadow="0">
      <root>
        <mxCell id="0" />
        <mxCell id="1" parent="0" />
        <mxCell id="0ilRfSA0rstDzHlrTOfN-21" value="" style="rounded=0;whiteSpace=wrap;html=1;" parent="1" vertex="1">
          <mxGeometry x="70" y="320" width="750" height="180" as="geometry" />
        </mxCell>
        <mxCell id="0ilRfSA0rstDzHlrTOfN-40" value="" style="rounded=0;whiteSpace=wrap;html=1;fontSize=14;" parent="1" vertex="1">
          <mxGeometry x="80" y="360" width="330" height="130" as="geometry" />
        </mxCell>
        <mxCell id="0ilRfSA0rstDzHlrTOfN-32" value="" style="rounded=0;whiteSpace=wrap;html=1;" parent="1" vertex="1">
          <mxGeometry x="70" y="130" width="750" height="170" as="geometry" />
        </mxCell>
        <mxCell id="0ilRfSA0rstDzHlrTOfN-28" value="" style="rounded=0;whiteSpace=wrap;html=1;" parent="1" vertex="1">
          <mxGeometry x="70" y="560" width="750" height="140" as="geometry" />
        </mxCell>
        <mxCell id="0ilRfSA0rstDzHlrTOfN-25" value="" style="rounded=0;whiteSpace=wrap;html=1;" parent="1" vertex="1">
          <mxGeometry x="470" y="350" width="330" height="140" as="geometry" />
        </mxCell>
        <mxCell id="0ilRfSA0rstDzHlrTOfN-1" value="Authentication Form" style="rounded=0;whiteSpace=wrap;html=1;" parent="1" vertex="1">
          <mxGeometry x="150" y="200" width="120" height="60" as="geometry" />
        </mxCell>
        <mxCell id="0ilRfSA0rstDzHlrTOfN-2" value="TaskCards" style="rounded=0;whiteSpace=wrap;html=1;" parent="1" vertex="1">
          <mxGeometry x="480" y="200" width="120" height="60" as="geometry" />
        </mxCell>
        <mxCell id="0ilRfSA0rstDzHlrTOfN-3" value="Task Form&amp;nbsp;" style="rounded=0;whiteSpace=wrap;html=1;" parent="1" vertex="1">
          <mxGeometry x="305" y="200" width="120" height="60" as="geometry" />
        </mxCell>
        <mxCell id="0ilRfSA0rstDzHlrTOfN-4" value="ReportCharts" style="rounded=0;whiteSpace=wrap;html=1;" parent="1" vertex="1">
          <mxGeometry x="640" y="200" width="120" height="60" as="geometry" />
        </mxCell>
        <mxCell id="0ilRfSA0rstDzHlrTOfN-6" value="Auth.js&lt;br&gt;Query.js&lt;br&gt;Mutation.js" style="rounded=0;whiteSpace=wrap;html=1;" parent="1" vertex="1">
          <mxGeometry x="90" y="400" width="110" height="80" as="geometry" />
        </mxCell>
        <mxCell id="0ilRfSA0rstDzHlrTOfN-7" value="Report.js" style="whiteSpace=wrap;html=1;aspect=fixed;" parent="1" vertex="1">
          <mxGeometry x="295" y="400" width="80" height="80" as="geometry" />
        </mxCell>
        <mxCell id="0ilRfSA0rstDzHlrTOfN-8" value="auth.directive.js&lt;br&gt;auth.js (middleware)" style="rounded=0;whiteSpace=wrap;html=1;" parent="1" vertex="1">
          <mxGeometry x="490" y="380" width="120" height="100" as="geometry" />
        </mxCell>
        <mxCell id="0ilRfSA0rstDzHlrTOfN-10" value="Task.js&lt;br&gt;User.js" style="rounded=0;whiteSpace=wrap;html=1;" parent="1" vertex="1">
          <mxGeometry x="660" y="380" width="120" height="100" as="geometry" />
        </mxCell>
        <mxCell id="0ilRfSA0rstDzHlrTOfN-11" value="Local Storage" style="rounded=0;whiteSpace=wrap;html=1;" parent="1" vertex="1">
          <mxGeometry x="160" y="600" width="120" height="60" as="geometry" />
        </mxCell>
        <mxCell id="0ilRfSA0rstDzHlrTOfN-12" value="MongoDB" style="rounded=0;whiteSpace=wrap;html=1;" parent="1" vertex="1">
          <mxGeometry x="575" y="600" width="120" height="60" as="geometry" />
        </mxCell>
        <mxCell id="0ilRfSA0rstDzHlrTOfN-18" value="Client&amp;nbsp;" style="text;html=1;strokeColor=none;fillColor=none;align=center;verticalAlign=middle;whiteSpace=wrap;rounded=0;" parent="1" vertex="1">
          <mxGeometry x="80" y="370" width="60" height="30" as="geometry" />
        </mxCell>
        <mxCell id="0ilRfSA0rstDzHlrTOfN-19" value="Utils" style="text;html=1;strokeColor=none;fillColor=none;align=center;verticalAlign=middle;whiteSpace=wrap;rounded=0;" parent="1" vertex="1">
          <mxGeometry x="80" y="400" width="60" height="30" as="geometry" />
        </mxCell>
        <mxCell id="0ilRfSA0rstDzHlrTOfN-24" value="Application Logic&amp;nbsp;" style="text;html=1;strokeColor=none;fillColor=none;align=center;verticalAlign=middle;whiteSpace=wrap;rounded=0;" parent="1" vertex="1">
          <mxGeometry x="75" y="330" width="115" height="30" as="geometry" />
        </mxCell>
        <mxCell id="0ilRfSA0rstDzHlrTOfN-26" value="Server" style="text;html=1;strokeColor=none;fillColor=none;align=center;verticalAlign=middle;whiteSpace=wrap;rounded=0;" parent="1" vertex="1">
          <mxGeometry x="480" y="345" width="60" height="30" as="geometry" />
        </mxCell>
        <mxCell id="0ilRfSA0rstDzHlrTOfN-27" value="Models" style="text;html=1;strokeColor=none;fillColor=none;align=center;verticalAlign=middle;whiteSpace=wrap;rounded=0;" parent="1" vertex="1">
          <mxGeometry x="660" y="380" width="60" height="30" as="geometry" />
        </mxCell>
        <mxCell id="0ilRfSA0rstDzHlrTOfN-29" value="Storage" style="text;html=1;strokeColor=none;fillColor=none;align=center;verticalAlign=middle;whiteSpace=wrap;rounded=0;" parent="1" vertex="1">
          <mxGeometry x="80" y="570" width="60" height="30" as="geometry" />
        </mxCell>
        <mxCell id="0ilRfSA0rstDzHlrTOfN-33" value="UserInterface&amp;nbsp;" style="text;html=1;strokeColor=none;fillColor=none;align=center;verticalAlign=middle;whiteSpace=wrap;rounded=0;" parent="1" vertex="1">
          <mxGeometry x="70" y="130" width="120" height="30" as="geometry" />
        </mxCell>
        <mxCell id="aIJBtPDbMst6TUzoflBV-2" value="" style="endArrow=classic;startArrow=classic;html=1;rounded=0;exitX=1;exitY=0.5;exitDx=0;exitDy=0;" edge="1" parent="1" source="0ilRfSA0rstDzHlrTOfN-40">
          <mxGeometry width="50" height="50" relative="1" as="geometry">
            <mxPoint x="400" y="540" as="sourcePoint" />
            <mxPoint x="470" y="425" as="targetPoint" />
          </mxGeometry>
        </mxCell>
        <mxCell id="aIJBtPDbMst6TUzoflBV-3" value="" style="endArrow=classic;startArrow=classic;html=1;rounded=0;exitX=0.423;exitY=0.992;exitDx=0;exitDy=0;exitPerimeter=0;entryX=0.5;entryY=0;entryDx=0;entryDy=0;" edge="1" parent="1" source="0ilRfSA0rstDzHlrTOfN-40" target="0ilRfSA0rstDzHlrTOfN-11">
          <mxGeometry width="50" height="50" relative="1" as="geometry">
            <mxPoint x="420" y="435" as="sourcePoint" />
            <mxPoint x="480" y="435" as="targetPoint" />
          </mxGeometry>
        </mxCell>
        <mxCell id="aIJBtPDbMst6TUzoflBV-4" value="" style="endArrow=classic;startArrow=classic;html=1;rounded=0;exitX=0.5;exitY=0;exitDx=0;exitDy=0;entryX=0.5;entryY=1;entryDx=0;entryDy=0;" edge="1" parent="1" source="0ilRfSA0rstDzHlrTOfN-12" target="0ilRfSA0rstDzHlrTOfN-25">
          <mxGeometry width="50" height="50" relative="1" as="geometry">
            <mxPoint x="430" y="445" as="sourcePoint" />
            <mxPoint x="490" y="445" as="targetPoint" />
          </mxGeometry>
        </mxCell>
        <mxCell id="aIJBtPDbMst6TUzoflBV-5" value="" style="endArrow=classic;html=1;rounded=0;exitX=1;exitY=0.5;exitDx=0;exitDy=0;entryX=0;entryY=0.5;entryDx=0;entryDy=0;" edge="1" parent="1" source="0ilRfSA0rstDzHlrTOfN-6" target="0ilRfSA0rstDzHlrTOfN-7">
          <mxGeometry width="50" height="50" relative="1" as="geometry">
            <mxPoint x="400" y="540" as="sourcePoint" />
            <mxPoint x="450" y="490" as="targetPoint" />
          </mxGeometry>
        </mxCell>
        <mxCell id="aIJBtPDbMst6TUzoflBV-6" value="" style="endArrow=classic;html=1;rounded=0;exitX=1;exitY=0;exitDx=0;exitDy=0;entryX=0.5;entryY=1;entryDx=0;entryDy=0;" edge="1" parent="1" source="0ilRfSA0rstDzHlrTOfN-7" target="0ilRfSA0rstDzHlrTOfN-4">
          <mxGeometry width="50" height="50" relative="1" as="geometry">
            <mxPoint x="400" y="540" as="sourcePoint" />
            <mxPoint x="450" y="490" as="targetPoint" />
          </mxGeometry>
        </mxCell>
        <mxCell id="aIJBtPDbMst6TUzoflBV-7" value="" style="endArrow=classic;html=1;rounded=0;exitX=1;exitY=0;exitDx=0;exitDy=0;entryX=0.5;entryY=1;entryDx=0;entryDy=0;" edge="1" parent="1" source="0ilRfSA0rstDzHlrTOfN-6" target="0ilRfSA0rstDzHlrTOfN-2">
          <mxGeometry width="50" height="50" relative="1" as="geometry">
            <mxPoint x="385" y="410" as="sourcePoint" />
            <mxPoint x="710" y="270" as="targetPoint" />
          </mxGeometry>
        </mxCell>
        <mxCell id="aIJBtPDbMst6TUzoflBV-8" value="" style="endArrow=classic;html=1;rounded=0;exitX=0.5;exitY=1;exitDx=0;exitDy=0;entryX=0.75;entryY=0;entryDx=0;entryDy=0;" edge="1" parent="1" source="0ilRfSA0rstDzHlrTOfN-3" target="0ilRfSA0rstDzHlrTOfN-6">
          <mxGeometry width="50" height="50" relative="1" as="geometry">
            <mxPoint x="400" y="540" as="sourcePoint" />
            <mxPoint x="450" y="490" as="targetPoint" />
          </mxGeometry>
        </mxCell>
        <mxCell id="aIJBtPDbMst6TUzoflBV-9" value="" style="endArrow=classic;html=1;rounded=0;exitX=0.5;exitY=1;exitDx=0;exitDy=0;entryX=0.5;entryY=0;entryDx=0;entryDy=0;" edge="1" parent="1" source="0ilRfSA0rstDzHlrTOfN-1" target="0ilRfSA0rstDzHlrTOfN-6">
          <mxGeometry width="50" height="50" relative="1" as="geometry">
            <mxPoint x="400" y="540" as="sourcePoint" />
            <mxPoint x="450" y="490" as="targetPoint" />
          </mxGeometry>
        </mxCell>
      </root>
    </mxGraphModel>
  </diagram>
</mxfile>
